<svg xmlns="http://www.w3.org/2000/svg" xmlns:xlink="http://www.w3.org/1999/xlink" viewBox="0 0 2806.28 2800"><defs><style>.cls-1{fill:none;}.cls-2{isolation:isolate;}.cls-13,.cls-22,.cls-27,.cls-3{fill:#f4f7fa;}.cls-30,.cls-4{fill:url(#linear-gradient);}.cls-5{clip-path:url(#clip-path);}.cls-22,.cls-6{opacity:0.5;}.cls-22,.cls-27,.cls-6{mix-blend-mode:soft-light;}.cls-7{fill:#fcfdfe;}.cls-8{clip-path:url(#clip-path-2);}.cls-9{fill:url(#linear-gradient-2);}.cls-10{fill:#beb8f2;}.cls-11{fill:url(#linear-gradient-3);}.cls-12{clip-path:url(#clip-path-3);}.cls-13{opacity:0.75;}.cls-14{fill:url(#linear-gradient-4);}.cls-15{fill:url(#linear-gradient-5);}.cls-16,.cls-18,.cls-26,.cls-30,.cls-31{opacity:0.3;}.cls-16,.cls-18,.cls-26,.cls-31{mix-blend-mode:multiply;}.cls-16{fill:url(#linear-gradient-6);}.cls-17{fill:url(#linear-gradient-7);}.cls-18{fill:url(#linear-gradient-8);}.cls-19{fill:url(#linear-gradient-9);}.cls-20{fill:url(#linear-gradient-10);}.cls-21{fill:url(#linear-gradient-11);}.cls-23{fill:url(#linear-gradient-12);}.cls-24{fill:url(#linear-gradient-13);}.cls-25{fill:url(#linear-gradient-14);}.cls-26{fill:url(#linear-gradient-15);}.cls-27{opacity:0.44;}.cls-28{clip-path:url(#clip-path-4);}.cls-29{fill:url(#linear-gradient-16);}.cls-31{fill:url(#linear-gradient-18);}.cls-32{fill:#fff;}.cls-33{fill:#97a6b7;}.cls-34{fill:#e7ebef;}.cls-35{fill:#d8dee8;}.cls-36{fill:url(#linear-gradient-19);}.cls-37{fill:url(#linear-gradient-20);}.cls-38{fill:url(#linear-gradient-21);}.cls-39{fill:url(#linear-gradient-22);}</style><linearGradient id="linear-gradient" x1="-1907.52" y1="466.03" x2="-1090.15" y2="2613.76" gradientTransform="matrix(-0.95, -0.3, -0.3, 0.95, 1198.14, 207.51)" gradientUnits="userSpaceOnUse"><stop offset="0" stop-color="#ff9085"/><stop offset="1" stop-color="#fb6fbb"/></linearGradient><clipPath id="clip-path" transform="translate(-440.69 -455)"><path class="cls-1" d="M1885.36,2902.7,1646,2773.23s-18.24-208,89-235.54,116.79-220.56,133.81-322.87c46.19-277.62,334.27-179.72,422.14-531.72,23.37-93.62,36.63-280,134.13-334.93,111.07-62.61,156,37.07,231.52-19.61,118-88.59,274.6-92,333.61,44.08,58.25,134.27-102.44,332.75-408,448.42-209.8,107.82-223.71,152.25-237.46,265.47-9.62,79.3,13.93,298-110.4,352s-225.64,120.71-207,217.6C2055.68,2803.6,1885.36,2902.7,1885.36,2902.7Z"/></clipPath><clipPath id="clip-path-2" transform="translate(-440.69 -455)"><path class="cls-1" d="M1759.41,2930.33l213.2,130s106.8-84.9,101.6-193.94c-10.6-222.46,185-216.22,267.28-225.86,124.13-14.54,227.17-81.49,128.72-198s142.44-232.31,346.28-226.9c199.48,5.29,324-346.25-106.7-397.35-257.21-30.51-355.67,201.89-433.3,307.43s-249,13.72-275.26,184.44c-22.44,145.83,17.94,286.75-101.06,323.87S1719.26,2756.33,1759.41,2930.33Z"/></clipPath><linearGradient id="linear-gradient-2" x1="6652.6" y1="441.02" x2="6155.54" y2="1853.73" gradientTransform="matrix(0.85, 0.52, -0.52, 0.85, -2558, -1919.83)" gradientUnits="userSpaceOnUse"><stop offset="0" stop-color="#e38ddd"/><stop offset="1" stop-color="#9571f6"/></linearGradient><linearGradient id="linear-gradient-3" x1="2757.48" y1="2159.75" x2="1485.63" y2="3988.04" gradientTransform="matrix(1, 0, 0, 1, 0, 0)" xlink:href="#linear-gradient"/><clipPath id="clip-path-3" transform="translate(-440.69 -455)"><path class="cls-1" d="M2125.62,3200.29l-241-54.15c-6.37-37.27-10.16-104.24,43.75-108.43,75-5.82,103.45-129.25,93.64-177.23-12.15-59.38-37.61-198.22,78.12-209,96.34-9,160.35,4.87,191.8-109.86s110.48-173.45,214.28-143.76c109.23,31.25,232-96.57,312.1-27.59,139.57,120.19-59.1,345-267.51,377.51s-113.06,125.68-128.43,221.81c-21,131.24-190.35,65.58-247.7,106.51C2129.7,3108.15,2124.5,3164.73,2125.62,3200.29Z"/></clipPath><linearGradient id="linear-gradient-4" x1="1204.34" y1="2800.47" x2="1220.06" y2="2674.69" gradientUnits="userSpaceOnUse"><stop offset="0" stop-color="#26264f"/><stop offset="1" stop-color="#444b8c"/></linearGradient><linearGradient id="linear-gradient-5" x1="1580.37" y1="3140.83" x2="1737.6" y2="2857.81" xlink:href="#linear-gradient-4"/><linearGradient id="linear-gradient-6" x1="1402.55" y1="3006.71" x2="1924.4" y2="3006.71" xlink:href="#linear-gradient-4"/><linearGradient id="linear-gradient-7" x1="1595.34" y1="3063.49" x2="1750.6" y2="2764.75" xlink:href="#linear-gradient-4"/><linearGradient id="linear-gradient-8" x1="1379.17" y1="2918.76" x2="1947.52" y2="2918.76" xlink:href="#linear-gradient-4"/><linearGradient id="linear-gradient-9" x1="1370.75" y1="2816.07" x2="1956.2" y2="2816.07" xlink:href="#linear-gradient-4"/><linearGradient id="linear-gradient-10" x1="1208.24" y1="2316.91" x2="1265.89" y2="2046.99" xlink:href="#linear-gradient-4"/><linearGradient id="linear-gradient-11" x1="1538.22" y1="1265.81" x2="2682.03" y2="3081.75" gradientUnits="userSpaceOnUse"><stop offset="0" stop-color="#fcb148"/><stop offset="0.05" stop-color="#fdba46"/><stop offset="0.14" stop-color="#ffc244"/><stop offset="0.32" stop-color="#ffc444"/><stop offset="0.48" stop-color="#fdb946"/><stop offset="0.78" stop-color="#f99c4d"/><stop offset="0.87" stop-color="#f8924f"/><stop offset="1" stop-color="#f8924f"/></linearGradient><linearGradient id="linear-gradient-12" x1="1329.26" y1="2664.06" x2="1562.49" y2="1982.72" gradientUnits="userSpaceOnUse"><stop offset="0.49" stop-color="#ebeff2"/><stop offset="1" stop-color="#fff"/></linearGradient><linearGradient id="linear-gradient-13" x1="1552.24" y1="2740.39" x2="1785.46" y2="2059.05" xlink:href="#linear-gradient-12"/><linearGradient id="linear-gradient-14" x1="1248.05" y1="2636.26" x2="1481.27" y2="1954.92" xlink:href="#linear-gradient-12"/><linearGradient id="linear-gradient-15" x1="1578.36" y1="856.48" x2="1350.37" y2="2735.41" xlink:href="#linear-gradient-11"/><clipPath id="clip-path-4" transform="translate(-440.69 -455)"><path class="cls-1" d="M2548.79,1441.32c0-465.56-396.37-843-885.32-843-138.45,0-269.47,30.29-386.18,84.25-5.61,71.82,3.11,130.75,16.53,178.19C1366.31,1117,1596,1115.13,1782,1452.6c144.09,261.43,71.82,381.45,220.31,548.63,49.66,55.91,107.53,98.48,168.9,131q3.74-2.7,7.54-5.32C2402.79,1973.92,2548.79,1723.85,2548.79,1441.32Z"/></clipPath><linearGradient id="linear-gradient-16" x1="1385.83" y1="2037.83" x2="2040.27" y2="631.77" gradientUnits="userSpaceOnUse"><stop offset="0.01" stop-color="#d8dee8"/><stop offset="1" stop-color="#f4f7fa"/></linearGradient><linearGradient id="linear-gradient-18" x1="1194.46" y1="1407.36" x2="2306.92" y2="1407.36" xlink:href="#linear-gradient-11"/><linearGradient id="linear-gradient-19" x1="2364.41" y1="2372.35" x2="1622.56" y2="5095.59" gradientTransform="matrix(-1, 0, 0, 1, 4322.61, -455)" gradientUnits="userSpaceOnUse"><stop offset="0" stop-color="#444b8c"/><stop offset="1" stop-color="#26264f"/></linearGradient><linearGradient id="linear-gradient-20" x1="2324.63" y1="2361.52" x2="1582.79" y2="5084.74" xlink:href="#linear-gradient-19"/><linearGradient id="linear-gradient-21" x1="2245.71" y1="2245.15" x2="1382.69" y2="5413.2" xlink:href="#linear-gradient-19"/><linearGradient id="linear-gradient-22" x1="2431.66" y1="2390.67" x2="1689.81" y2="5113.9" xlink:href="#linear-gradient-19"/></defs><title>Ideas</title><g class="cls-2"><g id="Illustration"><path class="cls-3" d="M1125,617.64c-95.81,134.13,12.56,354.36-128.57,454.51-137.38,97.49-303.15-66.42-432.54,17.38C372,1213.85,400.67,1792.23,675.57,2154.3c82.67,108.88,152.26,151.64,182,274.12,63.84,263-171.85,416.54-128.68,546.73,97.22,293.13,1637,554.45,2265.09-316.84,293.34-406.93,342.82-998.47,89.31-1450.82C2625.17,390.11,1340,316.67,1125,617.64Z" transform="translate(-440.69 -455)"/><path class="cls-4" d="M2027.33,2656.16c16.29,84.76-36.15,152.45-81.06,195.61-7.69-1.86-12.68-.84-20.91-.88-74.24-.38-104.92-17.2-177.37-29.75-15.59-2.7-58.26-25.43-75.06-35.93l-31-20.12s-14.2-199.84,93-227.4,116.79-220.56,133.81-322.87c46.19-277.62,334.27-179.72,422.14-531.72,23.37-93.62,36.63-280,134.13-334.93,111.07-62.61,156,37.07,231.52-19.61,118-88.59,274.6-92,333.61,44.08,58.25,134.27-102.44,332.75-408,448.42-209.8,107.82-223.71,152.25-237.46,265.47-9.62,79.3,13.93,298-110.4,352S2008.7,2559.27,2027.33,2656.16Z" transform="translate(-440.69 -455)"/><g class="cls-5"><g class="cls-6"><path class="cls-7" d="M1784.34,2833.22l-5-1.94c11.56-30,23.59-60.11,35.75-89.5,90-217.58,197.15-418.89,318.33-598.32,102.68-152,216.89-290.54,339.44-411.66,98.56-97.4,203-184.14,310.51-257.8,75.56-51.78,151.81-96.62,226.64-133.26,13-6.39,26.73-12.19,40-17.8,17.64-7.48,35.88-15.21,52.72-24.39l2.58,4.74c-17.07,9.3-35.43,17.09-53.2,24.61-13.17,5.59-26.8,11.36-39.71,17.69-74.59,36.52-150.62,81.23-226,132.86-107.21,73.48-211.43,160-309.76,257.19-122.31,120.87-236.28,259.09-338.77,410.84-121,179.13-227.91,380.11-317.82,597.36C1807.89,2773.19,1795.88,2803.26,1784.34,2833.22Z" transform="translate(-440.69 -455)"/><path class="cls-7" d="M2333.62,1889.14l-4.19-3.4c146.05-179.73,155.69-576.47,155.77-580.46l5.39.11C2490.51,1309.4,2480.84,1708,2333.62,1889.14Z" transform="translate(-440.69 -455)"/><path class="cls-7" d="M1969.14,2427.72l-4.56-2.89c85-133.76,386-178.46,389.06-178.89l.77,5.34C2351.4,2251.71,2052.77,2296.05,1969.14,2427.72Z" transform="translate(-440.69 -455)"/><path class="cls-7" d="M1927.49,2507.78l-5-2c39.15-95.75,41.38-247.24,6.28-426.55-1.76-9-1.76-9-1.39-10l5,2-2.51-1,2.69,0c.05.61.72,4,1.49,8C1969.37,2258.49,1967,2411.07,1927.49,2507.78Z" transform="translate(-440.69 -455)"/><path class="cls-7" d="M1806.2,2778.77l-4.2-3.38c71.49-88.71,240.48-88.72,242.17-88.71l0,5.4C2042.47,2692.07,1876.06,2692.1,1806.2,2778.77Z" transform="translate(-440.69 -455)"/><path class="cls-7" d="M1776.32,2831.66c1.89-91.85-22.54-187.25-74.67-291.64l4.83-2.41c52.53,105.19,77.14,201.41,75.23,294.16Z" transform="translate(-440.69 -455)"/><path class="cls-7" d="M2723.79,1522.87l-4-3.63c86.77-95.4,155.82-215.73,178.51-255.28,5.49-9.57,7.43-12.93,8.31-14l4.14,3.46c-.66.82-3.8,6.29-7.77,13.22C2880.23,1306.32,2811,1427,2723.79,1522.87Z" transform="translate(-440.69 -455)"/><path class="cls-7" d="M2559.77,1657.12l-2.75-4.65c104.11-61.53,338.14-.54,348.06,2.08l-1.39,5.22C2901.29,1659.13,2661.93,1596.74,2559.77,1657.12Z" transform="translate(-440.69 -455)"/></g></g><g class="cls-8"><path class="cls-9" d="M1759.41,2930.33l213.2,130s106.8-84.9,101.6-193.94c-10.6-222.46,185-216.22,267.28-225.86,124.13-14.54,213-76.94,145.5-193.67-76.32-132.06,125.66-236.63,329.5-231.22,199.48,5.29,324-346.25-106.7-397.35-257.21-30.51-355.67,201.89-433.3,307.43s-249,13.72-275.26,184.44c-22.44,145.83,17.94,286.75-101.06,323.87S1719.26,2756.33,1759.41,2930.33Z" transform="translate(-440.69 -455)"/><g class="cls-6"><path class="cls-10" d="M1839.62,3006.37l4.92,1.89c1.17-3.05,119.3-307.83,327.5-574.66,191.82-245.83,501.56-508.81,887.9-365.63l1.83-4.95c-172-63.73-343.33-53.68-509.3,29.89-132.58,66.75-262,180.31-384.65,337.53C1959.16,2697.89,1840.79,3003.32,1839.62,3006.37Z" transform="translate(-440.69 -455)"/><path class="cls-10" d="M2484.63,2130.82l4.81,2.17c72.11-159.94,257.46-336.58,259.33-338.35l-3.63-3.82C2743.27,1792.59,2557.16,1970,2484.63,2130.82Z" transform="translate(-440.69 -455)"/><path class="cls-10" d="M2596.74,2078.18c209.05-2,323,129.54,324.13,130.87l4-3.4c-1.14-1.35-116.58-134.81-328.2-132.75Z" transform="translate(-440.69 -455)"/><path class="cls-10" d="M2045.43,2615.46c179.68-181.53,500-57.64,503-56.17l2.6-4.58c-2.82-1.72-328.11-126.1-509.39,57Z" transform="translate(-440.69 -455)"/><path class="cls-10" d="M2098.85,2524.69l5,1.77c54.72-153.52-35.93-337.37-36.85-339.21l-4.71,2.36C2063.17,2191.44,2152.81,2373.31,2098.85,2524.69Z" transform="translate(-440.69 -455)"/><path class="cls-10" d="M1864.18,2960.71c56.84-78.64,214.63-72.16,216.22-72.08l.25-5.27c-6.6-.31-162.22-6.7-220.74,74.26Z" transform="translate(-440.69 -455)"/><path class="cls-10" d="M1891.19,2888.16l4.9,1.94c28.33-71.29-25.42-202.72-43.09-245.91-2.49-6.1-4.65-11.37-4.85-12.39l-5.18.95c.26,1.43,1.68,4.94,5.15,13.44C1865.59,2688.89,1918.74,2818.84,1891.19,2888.16Z" transform="translate(-440.69 -455)"/></g></g><path class="cls-11" d="M2136,3127.7l-3.09.6c-60.93,11.58-129.56,13.47-206.22-.48l-44.26-11.32c-4.68-38-2.32-75,45.94-78.79,75-5.82,103.45-129.25,93.64-177.23-12.15-59.38-37.61-198.22,78.12-209,96.34-9,160.35,4.87,191.8-109.86s110.48-173.45,214.28-143.76c109.23,31.25,232-96.57,312.1-27.59,139.57,120.19-59.1,345-267.51,377.51s-113.06,125.68-128.43,221.81c-21,131.24-190.35,65.58-247.7,106.51C2155.23,3089.92,2143.25,3108.36,2136,3127.7Z" transform="translate(-440.69 -455)"/><g class="cls-12"><g class="cls-6"><path class="cls-7" d="M2020.65,3136.88l-4.9-2.16c157.92-358.06,488.85-637.73,863.64-729.85l1.28,5.19C2507.46,2501.8,2177.92,2780.31,2020.65,3136.88Z" transform="translate(-440.69 -455)"/><path class="cls-7" d="M2123.47,2949l-5.23-1.15c33.06-150.2-69.76-295.58-70.81-297l4.35-3.12C2052.84,2649.2,2157.05,2796.47,2123.47,2949Z" transform="translate(-440.69 -455)"/><path class="cls-7" d="M2051.5,3071.8l-4.06-3.49c101.8-118.11,382.66-76.19,385.49-75.75l-.82,5.29C2429.31,2997.42,2151.36,2955.94,2051.5,3071.8Z" transform="translate(-440.69 -455)"/><path class="cls-7" d="M2380.74,2664.53l-4.34-3.13c72.46-100.25,37.65-286.7,37.29-288.57l5.26-1C2419.32,2373.71,2454.54,2562.44,2380.74,2664.53Z" transform="translate(-440.69 -455)"/><path class="cls-7" d="M2586.31,2524.84l-1.76-5.05c133.13-46.27,306,33.51,307.73,34.33L2890,2559C2888.3,2558.16,2717.36,2479.29,2586.31,2524.84Z" transform="translate(-440.69 -455)"/></g></g><path class="cls-13" d="M2548.78,1441.32c0-465.56-396.36-843-885.3-843s-885.31,377.42-885.31,843c0,282.53,146,532.6,370.06,685.55,95.06,64.88,152.7,171.83,152.7,286.93v64.51c0,140.16,113.63,253.79,253.79,253.79h217.51c140.16,0,253.79-113.63,253.79-253.79V2413.8c0-115.1,57.65-222.05,152.71-286.93C2402.79,1973.92,2548.78,1723.85,2548.78,1441.32Z" transform="translate(-440.69 -455)"/><ellipse class="cls-14" cx="1222.78" cy="2652.95" rx="196.39" ry="103.97"/><path class="cls-15" d="M1402.55,2922.21v106.18a93.28,93.28,0,0,0,52.87,84.3c45,21.47,119.86,45,228.63,42.24,88.24-2.26,145.78-16.67,182.36-31.81,35.34-14.63,58-49.57,58-87.82v-58.75Z" transform="translate(-440.69 -455)"/><path class="cls-16" d="M1402.55,3015.21a103.17,103.17,0,0,0,27.51,19.23c50.5,24.08,381.29,77.89,461.08,47.91A107.47,107.47,0,0,0,1919,3067a96.29,96.29,0,0,0,5.41-31.67v-58.75l-521.85-54.34Z" transform="translate(-440.69 -455)"/><path class="cls-17" d="M1425.72,2850a49.81,49.81,0,0,0-55,49.54v3a104.66,104.66,0,0,0,59.31,94.58c50.5,24.08,381.29,77.89,461.08,47.91,40.17-15.09,65.06-49.58,65.06-92.49v-2.42a49.8,49.8,0,0,0-44.65-49.54Z" transform="translate(-440.69 -455)"/><path class="cls-18" d="M1911.55,2900.56,1425.72,2850a49.7,49.7,0,0,0-46.55,21.93,104,104,0,0,0,50.89,53.37c50.5,24.08,395.38,84.91,461.08,53.95,25.58-12,45.63-32.4,56.38-57.13A49.69,49.69,0,0,0,1911.55,2900.56Z" transform="translate(-440.69 -455)"/><path class="cls-19" d="M1406.71,2678a36,36,0,0,0-36,36v83.16a104.65,104.65,0,0,0,59.31,94.57c50.5,24.08,395.38,84.91,461.08,54,38.82-18.29,65.06-55.61,65.06-98.52V2713.91a36,36,0,0,0-36-36Z" transform="translate(-440.69 -455)"/><ellipse class="cls-20" cx="1222.78" cy="2248.83" rx="285.48" ry="67.5"/><path class="cls-21" d="M2548.78,1441.32c0-465.56-396.36-843-885.3-843s-885.31,377.42-885.31,843c0,282.53,146,532.6,370.06,685.55,95.06,64.88,152.7,171.83,152.7,286.93v64.51c0,140.16,113.63,253.79,253.79,253.79h217.51c140.16,0,253.79-113.63,253.79-253.79V2413.8c0-115.1,57.65-222.05,152.71-286.93C2402.79,1973.92,2548.78,1723.85,2548.78,1441.32Z" transform="translate(-440.69 -455)"/><ellipse class="cls-22" cx="1222.78" cy="2195.61" rx="208.9" ry="49.39"/><path class="cls-23" d="M1609,2680.79a12.07,12.07,0,0,1-12-10.53L1443.4,1475.15a12.07,12.07,0,0,1,23.95-3.08L1621,2667.18a12.06,12.06,0,0,1-10.44,13.51A11.63,11.63,0,0,1,1609,2680.79Z" transform="translate(-440.69 -455)"/><path class="cls-24" d="M1704.49,2680.79a11.63,11.63,0,0,1-1.55-.1,12.06,12.06,0,0,1-10.44-13.51l153.68-1195.11a12.07,12.07,0,0,1,24,3.08L1716.45,2670.26A12.07,12.07,0,0,1,1704.49,2680.79Z" transform="translate(-440.69 -455)"/><path class="cls-25" d="M1829.65,1474.18a12.06,12.06,0,0,1-10.09-5.43l-42.42-64.34a1.92,1.92,0,0,0-1.72-1,1.9,1.9,0,0,0-1.64,1l-28,46.9a26.06,26.06,0,0,1-44.17,1.08l-38.45-57.65a2,2,0,0,0-1.66-1,2,2,0,0,0-1.61.87l-33.78,48.83a26.13,26.13,0,0,1-21.4,11.29h0a26.15,26.15,0,0,1-21.44-11.24l-48.7-69.76a2.19,2.19,0,0,0-1.72-.91,1.89,1.89,0,0,0-1.62,1l-44.45,76.73a12.07,12.07,0,1,1-20.89-12.11l44.45-76.73a26.07,26.07,0,0,1,44-1.84l48.69,69.76a1.94,1.94,0,0,0,1.65.92h0a1.91,1.91,0,0,0,1.6-.89L1640,1381a26.06,26.06,0,0,1,43.22.42l38.44,57.64c.44.65,1.08,1.19,1.72,1a1.89,1.89,0,0,0,1.64-1l28-46.9a26.06,26.06,0,0,1,44.25-.95l42.42,64.34a12.07,12.07,0,0,1-10.07,18.71Z" transform="translate(-440.69 -455)"/><path class="cls-26" d="M1679.54,2106.23c19-324.91,566.71-401,564.36-691.12-1.45-178.71-219.1-311.42-265.58-338-342.47-195.87-764,30.32-851.06-129.77-21.68-39.86-11.52-83.24-5.73-108,8.75-37.35,28.55-72.13,57.93-104C937.84,886,778.17,1145.86,778.17,1441.32c0,282.53,146,532.6,370.06,685.55,95.06,64.89,152.7,171.83,152.7,286.93v64.51c0,140.16,113.63,253.79,253.79,253.79h217.51c140.16,0,253.79-113.63,253.79-253.79v-51.58c-29.94,22.94-64.32,38.94-102,38.63C1793.18,2464.29,1670.1,2267.91,1679.54,2106.23Z" transform="translate(-440.69 -455)"/><ellipse class="cls-27" cx="1236.94" cy="1019.18" rx="761.83" ry="734.7"/><g class="cls-28"><path class="cls-29" d="M2548.78,1441.32c0-465.56-396.36-843-885.3-843s-885.31,377.42-885.31,843c0,282.53,146,532.6,370.06,685.55,95.06,64.88,152.7,171.83,152.7,286.93v64.51c0,140.16,113.63,253.79,253.79,253.79h217.51c140.16,0,253.79-113.63,253.79-253.79V2413.8c0-115.1,57.65-222.05,152.71-286.93C2402.79,1973.92,2548.78,1723.85,2548.78,1441.32Z" transform="translate(-440.69 -455)"/><path class="cls-30" d="M2027.33,2656.16c16.29,84.76-36.15,152.45-81.06,195.61-7.69-1.86-12.68-.84-20.91-.88-74.24-.38-104.92-17.2-177.37-29.75-15.59-2.7-58.26-25.43-75.06-35.93l-31-20.12s-14.2-199.84,93-227.4,116.79-220.56,133.81-322.87c46.19-277.62,334.27-179.72,422.14-531.72,23.37-93.62,36.63-280,134.13-334.93,111.07-62.61,156,37.07,231.52-19.61,118-88.59,274.6-92,333.61,44.08,58.25,134.27-102.44,332.75-408,448.42-209.8,107.82-223.71,152.25-237.46,265.47-9.62,79.3,13.93,298-110.4,352S2008.7,2559.27,2027.33,2656.16Z" transform="translate(-440.69 -455)"/><path class="cls-31" d="M1277.29,682.59c84.33-1.12,200.29,11.86,282.92,90.35,103.29,98.1,55.93,204.9,126.72,348.47C1806,1363,2046.12,1275.66,2211.08,1524.6c150,226.41,94.31,514.2,31.68,558.71-5.62,4-71.58,48.88-71.58,48.88h0L1194.46,1711.8Z" transform="translate(-440.69 -455)"/><path class="cls-32" d="M1663.48,2252.88c-227.42,0-441.23-84.36-602.06-237.55S812,1658.35,812,1441.62s88.59-420.47,249.46-573.7,374.64-237.55,602.06-237.55,441.23,84.36,602.05,237.55,249.46,357,249.46,573.7-88.59,420.48-249.46,573.71S1890.89,2252.88,1663.48,2252.88Zm0-1615.64c-225.65,0-437.78,83.69-597.32,235.65S818.83,1226.8,818.83,1441.62s87.84,416.81,247.33,568.73S1437.83,2246,1663.48,2246s437.77-83.69,597.31-235.66,247.33-353.9,247.33-568.73-87.83-416.8-247.33-568.73S1889.12,637.24,1663.48,637.24Z" transform="translate(-440.69 -455)"/><path class="cls-32" d="M1663.48,2252.88c-166.9,0-323.75-84.5-441.66-238-117.7-153.17-182.52-356.78-182.52-573.31s64.82-420.13,182.52-573.31c117.91-153.44,274.76-237.94,441.66-237.94s323.74,84.5,441.65,237.94c117.7,153.18,182.52,356.78,182.52,573.31s-64.82,420.14-182.52,573.31C1987.22,2168.38,1830.37,2252.88,1663.48,2252.88Zm0-1615.64c-340.39,0-617.31,360.84-617.31,804.38S1323.09,2246,1663.48,2246s617.3-360.85,617.3-804.39S2003.86,637.24,1663.48,637.24Z" transform="translate(-440.69 -455)"/><path class="cls-32" d="M1663.48,2252.88c-84.43,0-163.51-84.81-222.68-238.81-58.76-153-91.13-356.26-91.13-572.45s32.37-419.48,91.13-572.45c59.17-154,138.25-238.8,222.68-238.8s163.5,84.81,222.66,238.8c58.77,153,91.14,356.27,91.14,572.45s-32.37,419.49-91.14,572.45C1827,2168.07,1747.9,2252.88,1663.48,2252.88Zm0-1615.64c-169.25,0-306.94,360.84-306.94,804.38S1494.23,2246,1663.48,2246s306.93-360.85,306.93-804.39S1832.72,637.24,1663.48,637.24Z" transform="translate(-440.69 -455)"/><rect class="cls-32" x="1219.35" y="178.8" width="6.87" height="1615.65"/><path class="cls-32" d="M1663.48,1535.86c-226.63,0-439.7-7.47-600-21-78-6.6-139.29-14.29-182.13-22.86-62.22-12.44-69.41-23.81-69.41-31.28s7.19-18.85,69.41-31.29c42.84-8.57,104.12-16.26,182.13-22.86,160.28-13.56,373.35-21,600-21s439.69,7.46,600,21c78,6.6,139.29,14.29,182.14,22.86,62.21,12.44,69.4,23.81,69.4,31.29s-7.19,18.84-69.4,31.28c-42.85,8.57-104.13,16.26-182.14,22.86C2103.17,1528.39,1890.1,1535.86,1663.48,1535.86Zm0-143.46c-226.44,0-439.31,7.46-599.4,21-233.43,19.74-245.25,42.86-245.25,47.3s11.82,27.55,245.25,47.29c160.09,13.54,373,21,599.4,21s439.3-7.46,599.39-21c233.43-19.74,245.25-42.86,245.25-47.29s-11.82-27.56-245.25-47.3C2102.78,1399.86,1889.92,1392.4,1663.48,1392.4Z" transform="translate(-440.69 -455)"/><path class="cls-32" d="M1663.48,1230.06c-386.28,0-785.83-36.54-785.83-97.7,0-34.79,126.26-57.3,232.18-70.06,147.9-17.82,344.53-27.64,553.65-27.64s405.74,9.82,553.64,27.64c105.92,12.76,232.18,35.27,232.18,70.06C2449.3,1193.52,2049.75,1230.06,1663.48,1230.06Zm0-188.53c-466,0-779,47-779,90.83s313,90.83,779,90.83,778.95-47,778.95-90.83S2129.43,1041.53,1663.48,1041.53Z" transform="translate(-440.69 -455)"/><path class="cls-32" d="M1661.12,850.29c-229.52,0-466.92-28.64-466.92-76.57s237.4-76.57,466.92-76.57S2128,725.79,2128,773.72,1890.63,850.29,1661.12,850.29Zm0-146.27c-275.2,0-460,36-460,69.7s184.85,69.7,460.05,69.7,460-36,460-69.7S1936.31,704,1661.12,704Z" transform="translate(-440.69 -455)"/><path class="cls-32" d="M1663.48,1842.54c-209.12,0-405.75-9.81-553.65-27.63-105.92-12.76-232.18-35.28-232.18-70.07s126.26-57.3,232.18-70.06c147.9-17.82,344.53-27.63,553.65-27.63s405.74,9.81,553.64,27.63c105.92,12.76,232.18,35.27,232.18,70.06s-126.26,57.31-232.18,70.07C2069.22,1832.73,1872.59,1842.54,1663.48,1842.54Zm0-188.52c-466,0-779,47-779,90.82s313,90.83,779,90.83,778.95-47,778.95-90.83S2129.43,1654,1663.48,1654Z" transform="translate(-440.69 -455)"/><path class="cls-32" d="M1661.12,2180.05c-229.52,0-466.92-28.64-466.92-76.56s237.4-76.57,466.92-76.57S2128,2055.56,2128,2103.49,1890.63,2180.05,1661.12,2180.05Zm0-146.26c-275.2,0-460,36-460,69.7s184.85,69.69,460.05,69.69,460-36,460-69.69S1936.31,2033.79,1661.12,2033.79Z" transform="translate(-440.69 -455)"/><circle class="cls-32" cx="1814.3" cy="736.25" r="32.4"/><circle class="cls-32" cx="1521.63" cy="766.63" r="32.4"/><circle class="cls-32" cx="1835.61" cy="1051.58" r="32.4"/><circle class="cls-32" cx="1531.35" cy="1069.96" r="32.4"/><circle class="cls-32" cx="2443.99" cy="1124.29" r="32.4" transform="translate(-684.9 565.86) rotate(-22.5)"/><circle class="cls-32" cx="2068.1" cy="1006.53" r="32.4"/><circle class="cls-32" cx="1222.78" cy="770.81" r="32.4"/><circle class="cls-32" cx="1222.78" cy="390.66" r="32.4"/><circle class="cls-32" cx="1870.23" cy="837.02" r="32.4" transform="translate(185.22 2009.91) rotate(-76.72)"/><circle class="cls-32" cx="1605.51" cy="357.54" r="32.4"/><circle class="cls-32" cx="1683.27" cy="312.83" r="32.4"/><circle class="cls-32" cx="1222.78" cy="178.98" r="32.4"/><circle class="cls-32" cx="1494.63" cy="1379.92" r="32.4"/><circle class="cls-32" cx="2217.56" cy="1806.12" r="32.4" transform="translate(-1068.3 1642.05) rotate(-45)"/><circle class="cls-32" cx="2439.46" cy="1751.4" r="32.4" transform="translate(-964.62 1782.93) rotate(-45)"/></g><path class="cls-33" d="M2266.37,3193.78a3.93,3.93,0,0,1-3.94-3.93V2163.6a3.94,3.94,0,0,1,7.87,0V3189.85A3.93,3.93,0,0,1,2266.37,3193.78Z" transform="translate(-440.69 -455)"/><path class="cls-33" d="M2542.85,3129.32a3.94,3.94,0,0,1-3.94-3.94V2137.72a3.94,3.94,0,0,1,7.87,0v987.66A3.94,3.94,0,0,1,2542.85,3129.32Z" transform="translate(-440.69 -455)"/><path class="cls-33" d="M3182.06,3175.31a3.94,3.94,0,0,1-3.7-2.6L2808.77,2154.34a3.94,3.94,0,1,1,7.4-2.69L3185.76,3170a3.95,3.95,0,0,1-3.7,5.28Z" transform="translate(-440.69 -455)"/><path class="cls-33" d="M2909.22,3255a4,4,0,0,1-3.76-2.77l-331.71-1073.7a3.94,3.94,0,1,1,7.52-2.33L2913,3249.9a4,4,0,0,1-3.76,5.1Z" transform="translate(-440.69 -455)"/><polygon class="cls-33" points="2099.11 1681.7 1821.76 1702.22 1821.76 1708.46 2138.73 1722.67 2375.65 1693.64 2375.65 1687.41 2099.11 1681.7"/><polygon class="cls-34" points="2099.11 1675.46 1821.76 1702.22 2138.73 1716.43 2375.65 1687.41 2099.11 1675.46"/><path class="cls-33" d="M2837.45,3022.72a3.94,3.94,0,0,1-1-7.75l264.08-69.28a3.94,3.94,0,0,1,2,7.62l-264.09,69.28A4.29,4.29,0,0,1,2837.45,3022.72Z" transform="translate(-440.69 -455)"/><path class="cls-33" d="M2762.64,2779.67a3.94,3.94,0,0,1-.68-7.81L3021.14,2726a3.94,3.94,0,1,1,1.37,7.75l-259.18,45.89A4,4,0,0,1,2762.64,2779.67Z" transform="translate(-440.69 -455)"/><path class="cls-33" d="M2684.87,2528.81a3.94,3.94,0,0,1-.5-7.84l250.82-32.33a3.88,3.88,0,0,1,4.41,3.4,3.93,3.93,0,0,1-3.4,4.4l-250.83,32.33A2.89,2.89,0,0,1,2684.87,2528.81Z" transform="translate(-440.69 -455)"/><path class="cls-33" d="M2635,2354.72a3.94,3.94,0,0,1-.61-7.83l235.83-36.9a3.94,3.94,0,1,1,1.22,7.78l-235.83,36.9A4.3,4.3,0,0,1,2635,2354.72Z" transform="translate(-440.69 -455)"/><path class="cls-35" d="M1362.3,1805.39c28.25,14.34,63.73,1.17,79.25-29.42s5.21-67-23-81.34c-1.46-.74-3-1.36-4.45-2a359,359,0,0,0,11.85-51c1.61,0,3.24,0,4.89-.18,32.22-2.88,57.79-32.5,57.11-66.15s-27.35-58.61-59.58-55.73c-1.68.15-3.33.41-5,.71a328.8,328.8,0,0,0-13.8-48.74c1.48-.87,3-1.77,4.39-2.77,27.57-19.32,36.38-57.45,19.67-85.16s-52.58-34.5-80.15-15.18c-1.41,1-2.74,2.06-4,3.14a292.54,292.54,0,0,0-35.76-33.37c.9-1.49,1.79-3,2.6-4.58,15.52-30.59,35.8-64,7.34-77.89-65.86-32.13-94.11-4.61-109.64,26-.8,1.58-1.49,3.19-2.16,4.8a291.7,291.7,0,0,0-48-9.16c.1-1.7.18-3.4.14-5.13-.68-33.65,9.3-51.87-23-52.49-70.54-1.36-94.33,29.26-93.65,62.91,0,1.76.18,3.48.35,5.19a329.33,329.33,0,0,0-47.48,17.63c-.74-1.5-1.5-3-2.37-4.44-16.7-27.71-52.59-34.5-80.16-15.18s-36.37,57.44-19.67,85.15c.86,1.42,1.79,2.75,2.75,4.06a358.73,358.73,0,0,0-34.21,39.69c-1.36-.85-2.75-1.69-4.21-2.43C834,1398,798.47,1411.15,783,1441.73s-5.21,67,23,81.34c1.46.74,3,1.37,4.45,2a359,359,0,0,0-11.84,51c-1.62,0-3.25,0-4.9.18-32.22,2.88-57.79,32.5-57.11,66.16s27.35,58.6,59.58,55.72c1.68-.15,3.34-.41,5-.71A327.63,327.63,0,0,0,815,1746.16c-1.49.87-3,1.77-4.4,2.78-27.57,19.32-36.37,57.44-19.67,85.15s72,40.57,99.54,21.25c1.42-1-16.65-8.12-15.33-9.21a290.32,290.32,0,0,0,35.76,33.37c-.91,1.49-1.8,3-2.6,4.58-15.53,30.59-5.21,67,23,81.34s63.73,1.16,79.25-29.43c.8-1.58,1.49-3.19,2.16-4.8a290.86,290.86,0,0,0,48,9.16c-.1,1.7-.17,3.4-.14,5.13.68,33.66,27.36,58.61,59.58,55.73s57.8-32.5,57.11-66.15c0-1.76-.18-3.48-.35-5.19a328.15,328.15,0,0,0,47.48-17.63c.74,1.5,1.5,3,2.37,4.44,16.71,27.7,52.59,34.51,80.16,15.18s36.37-57.44,19.67-85.15c-.86-1.42-1.79-2.75-2.74-4a360.75,360.75,0,0,0,34.2-39.7C1359.45,1803.81,1360.84,1804.65,1362.3,1805.39Zm-352.09,4.54c-102.56-52-140-184.27-83.66-295.32s185.19-158.88,287.74-106.83,140,184.26,83.66,295.31S1112.77,1862,1010.21,1809.93Z" transform="translate(-440.69 -455)"/><path class="cls-35" d="M1430.8,1641.45c32.22-2.88,57.79-32.5,57.11-66.15s-27.35-58.61-59.58-55.73c-1.68.15-3.33.41-5,.71a328.8,328.8,0,0,0-13.8-48.74c1.48-.87,3-1.77,4.39-2.78,27.57-19.32,61.67-66,42.21-91.84-36.92-49.06-75.12-27.81-102.69-8.49-1.41,1-2.74,2.06-4,3.14a291.76,291.76,0,0,0-35.76-33.37c.9-1.49,1.79-3,2.6-4.58a64.18,64.18,0,0,0,3.6-50.6q-39.93,70.32-78.67,141.27c81.82,59.94,107.89,178.07,56.77,278.8-43.32,85.36-129.45,133.3-213.56,127.31-3.75,9.73-7.43,19.52-11.45,29.15-10.9,26.16-23.28,51.77-35.68,77.35q11.7,2.2,23.49,3.45c-.1,1.7-.17,3.4-.14,5.13.68,33.66,21.12,62.25,79.52,59.14,32.31-1.72,37.85-35.91,37.17-69.56,0-1.76-.18-3.48-.35-5.19a329.33,329.33,0,0,0,47.48-17.63c.74,1.5,1.5,3,2.37,4.44,16.71,27.71,74.63,39.47,102.2,20.15s14.33-62.41-2.37-90.12c-.86-1.42-1.79-2.75-2.74-4.06a359.72,359.72,0,0,0,34.2-39.69c1.36.86,2.75,1.69,4.21,2.43,28.25,14.34,63.73,1.16,79.25-29.42s5.21-67-23-81.34c-1.46-.74-3-1.36-4.45-2a359,359,0,0,0,11.85-51C1427.52,1641.62,1429.15,1641.59,1430.8,1641.45Z" transform="translate(-440.69 -455)"/><path class="cls-32" d="M1392.68,1808.84c28.25,14.34,63.73,1.16,79.25-29.42s5.21-67-23-81.34c-1.46-.74-3-1.37-4.45-2a357.63,357.63,0,0,0,11.84-51c1.62,0,3.25,0,4.9-.18,32.22-2.88,57.79-32.5,57.11-66.16s-27.35-58.6-59.58-55.72c-1.68.15-3.33.41-5,.71a327.63,327.63,0,0,0-13.81-48.74c1.49-.87,3-1.77,4.4-2.78,27.57-19.32,36.38-57.44,19.67-85.15s-52.58-34.5-80.15-15.18c-1.41,1-2.74,2.06-4.06,3.14a290.32,290.32,0,0,0-35.76-33.37c.91-1.49,1.8-3,2.61-4.58,15.52-30.59,5.2-67-23-81.34s-63.73-1.16-79.26,29.43c-.8,1.58-1.49,3.19-2.16,4.8a290.86,290.86,0,0,0-48-9.16c.1-1.7.17-3.4.14-5.13-.68-33.65-27.36-58.6-59.58-55.73s-57.79,32.5-57.11,66.15c0,1.76.18,3.48.35,5.19a329.33,329.33,0,0,0-47.48,17.63c-.74-1.5-1.5-3-2.37-4.44-16.7-27.71-52.59-34.51-80.16-15.18s-36.37,57.44-19.67,85.15c.86,1.42,1.79,2.75,2.75,4a359.76,359.76,0,0,0-34.21,39.7c-1.36-.85-2.75-1.69-4.21-2.43-28.25-14.34-63.73-1.16-79.25,29.42s-5.21,67,23,81.34c1.46.74,3,1.36,4.45,2a357.63,357.63,0,0,0-11.84,51c-1.62,0-3.25,0-4.9.18-32.22,2.88-57.79,32.5-57.11,66.15s27.35,58.61,59.58,55.73c1.68-.15,3.34-.41,5-.71a327.63,327.63,0,0,0,13.81,48.74c-1.49.87-3,1.76-4.4,2.78-27.57,19.31-36.37,57.44-19.67,85.15s52.58,34.5,80.15,15.18c1.41-1,2.74-2.06,4.05-3.14A292.54,292.54,0,0,0,941.23,1883c-.9,1.49-1.79,3-2.6,4.58-15.52,30.59-5.2,67,23,81.34s63.73,1.16,79.26-29.43c.8-1.58,1.49-3.19,2.16-4.8a291.7,291.7,0,0,0,48,9.16c-.1,1.7-.17,3.4-.14,5.13.68,33.65,27.36,58.6,59.58,55.73s57.79-32.5,57.11-66.15c0-1.76-.18-3.48-.35-5.19a329.33,329.33,0,0,0,47.48-17.63c.74,1.5,1.5,3,2.37,4.44,16.71,27.7,52.59,34.5,80.16,15.18s36.37-57.44,19.67-85.15c-.86-1.42-1.79-2.75-2.75-4.06a358.73,358.73,0,0,0,34.21-39.69C1389.83,1807.26,1391.22,1808.1,1392.68,1808.84Zm-352.09,4.53c-102.56-52-140-184.26-83.66-295.31s185.18-158.88,287.74-106.84,140,184.27,83.66,295.32S1143.15,1865.42,1040.59,1813.37Z" transform="translate(-440.69 -455)"/><path class="cls-32" d="M1772.23,2735.53h-217.5c-141.84,0-257.23-115.39-257.23-257.22V2413.8c0-113.26-56.53-219.46-151.21-284.1-112.5-76.79-205.91-178.92-270.13-295.36a816.05,816.05,0,0,1-101.43-393c0-226.12,92.47-438.69,260.37-598.56s391-247.85,628.38-247.85,460.52,88,628.37,247.85,260.37,372.44,260.37,598.56a815.94,815.94,0,0,1-101.43,393c-64.22,116.44-157.63,218.57-270.13,295.36-94.68,64.63-151.21,170.84-151.21,284.1v64.51C2029.45,2620.14,1914.06,2735.53,1772.23,2735.53ZM1663.48,601.78c-235.59,0-457.07,87.35-623.64,246S781.6,1217.1,781.6,1441.32A809.15,809.15,0,0,0,882.18,1831c63.7,115.49,156.37,216.81,268,293,96.56,65.91,154.21,174.24,154.21,289.77v64.51c0,138,112.31,250.35,250.36,250.35h217.5c138,0,250.35-112.31,250.35-250.35V2413.8c0-115.53,57.65-223.86,154.21-289.77,111.61-76.19,204.28-177.51,268-293a809.15,809.15,0,0,0,100.58-389.71c0-224.22-91.71-435-258.23-593.59S1899.07,601.78,1663.48,601.78Z" transform="translate(-440.69 -455)"/><circle class="cls-32" cx="1626.66" cy="1787.69" r="33.81"/><circle class="cls-32" cx="1367.21" cy="1983.58" r="25.76"/><polygon class="cls-32" points="1363.95 1992.98 1359.77 1987.52 1625.35 1784.37 1626.32 1784.27 2012.42 1745.11 2013.11 1751.95 1627.98 1791.01 1363.95 1992.98"/><circle class="cls-32" cx="2453.46" cy="2208.88" r="25.76" transform="translate(-1099.24 652.04) rotate(-22.5)"/><polygon class="cls-36" points="1984.71 2470.91 2211 2297.13 2172.82 2249.88 1946.93 2424.16 1984.71 2470.91"/><polygon class="cls-37" points="2052.64 2577.31 2302.39 2387.36 2233.2 2301.75 1984.25 2492.69 2052.64 2577.31"/><polygon class="cls-38" points="2143.32 2796.19 2584.15 2796.19 2488.43 2557.18 2311.32 2401.93 2062.38 2592.87 2143.32 2796.19"/><polygon class="cls-39" points="1622.51 1849.57 1610.81 1835.09 1622.33 1825.73 1944.61 2224.52 1965.47 2221.4 1973.29 2202.12 1650.57 1802.79 1662.14 1793.39 1673.87 1807.91 2178.44 2063.18 2181.97 2222.1 2063.44 2313.67 2034.64 2335.92 1917.72 2426.24 1764.36 2386.18 1622.51 1849.57"/></g></g></svg>