<svg xmlns="http://www.w3.org/2000/svg" viewBox="0 0 1293.86 533.27"><defs><style>.cls-1{fill:#fff;}</style></defs><title>Logo-Batool-Mahmood-White</title><g id="Calque_2" data-name="Calque 2"><g id="Calque_1-2" data-name="Calque 1"><g id="Calque_1-2-2" data-name="Calque 1-2"><path class="cls-1" d="M485,254.24c-15.39,0-30.78.15-46.16,0-19.38-.25-38.75-.77-58.12-1.22-9.41-.21-9.95-1.12-7.17-9.9,3.13-9.91,5.13-20.51,13.37-27.74,9.56-8.4,19.36-16.6,29.57-24.18a306.94,306.94,0,0,1,57.74-33.55A64.38,64.38,0,0,1,484.53,154c3.37-.85,3.35-2.44,2.07-5.05-2.18-4.48-4.3-9-6.27-13.57-4.85-11.25-2-33.38,13.22-40.86,6.57-3.22,14.1-5.47,20.73-2.9,8.59,3.34,16.28,9,24.36,13.69a17,17,0,0,0,1.85,1.18c2.67,1.16,5.36,2.25,7.58,3.16.44,1.08.67,2.67,1.57,3.63,3.49,3.72,7.15,7.28,10.83,10.83,4.08,4,3.76,8.85,2.44,13.55-1.61,5.76-4.13,11.26-5.92,17-1,3.07-3,4.43-5.76,5.28-12.31,3.75-24.59,7.59-36.92,11.26-2.59.77-3.48,2.09-3.31,4.74a29,29,0,0,1-.45,7.44c-.24,1.26-1.3,2.95-2.35,3.27-.81.25-2.56-1.1-3.22-2.16-1.21-2-1.73-4.36-3-6.32-.53-.84-2.39-1.73-3.15-1.42-26.62,11.2-53.73,21.48-77.26,38.82-1.3,1-2.5,2-3.71,3.12a20.93,20.93,0,0,0-1.43,1.69,19.53,19.53,0,0,0,2.73.49c25.38.36,50.77.84,76.16,1,7.74,0,15.44.9,23.2.68,8.19-.23,16.41.6,24.61.75s16.15.12,24.22,0c6.59-.12,13.18-.67,19.78-.8,5.66-.11,6.68,1.37,4.92,6.55-2.26,6.67-4.27,13.45-7.06,19.89a10.74,10.74,0,0,1-6.06,5.44c-18.72,5.46-37.67,10.12-56.33,15.75-33.19,10-63.91,25-90.77,47.23-4,3.27-7.6,6.91-11.27,10.5a28.52,28.52,0,0,0-3,4.16c1.62.48,3.21,1.29,4.85,1.39,16.55,1.06,33.09,2.26,49.65,2.92,26.68,1.07,53.39,1.34,80,2.79,12.24.67,24.62,2.59,35,10.2,18.69,13.67,24.37,32.87,23.2,54.94-1.84,34.44-17.65,62.09-41.64,85.77-14.88,14.68-31.61,26.64-51.2,34.21-28.71,11.1-58,12.21-87,2.25-26.15-9-41-28.82-48-55-6.32-23.64-6.54-47.66-3.16-71.64,1.85-13.17,5.36-26.11,8.39-39.08.68-2.91.92-4.56-2.61-5.33a38.05,38.05,0,0,1-8.65-3.18c-2.88-1.42-3.31-.41-3.66,2.32-1,7.53-1.68,15.18-3.61,22.48-2,7.5-4.22,8-11.2,4.53-22.13-10.9-33-29-34.6-53.29A41.75,41.75,0,0,0,322,322c-1.67,1.53-3.66,2.82-4.95,4.62-7.93,11.08-16.34,21.84-29.34,27.12-6.14,2.49-7.57,6.15-8.57,12.21-3.27,20-11.48,37.71-25.62,52.58-17.93,18.87-36.52,37-58.24,51.52-16.2,10.86-33.25,19.83-52.9,22.78-26.44,4-48.55-9.1-57.63-34.2a24.72,24.72,0,0,1-1.06-3.36c-.83-4-2.23-4.61-6.15-2.46-10,5.5-20.07,11.16-30.69,15.24-23.58,9.08-42.21-2.13-45.7-27.13-3.06-21.9.35-43.31,6.53-64.31,2.11-7.17,5-14.1,7.42-21.17a4.81,4.81,0,0,0,.16-3.24c-3.68-7.41-3.11-15.15-1.71-22.86,2.67-14.68,7.92-28.5,14.55-41.82a2.57,2.57,0,0,1,2.05-1.34c-1.76,6.39-4.05,12.79-5.36,19.41-1.82,9-3,18.12-4.29,27.21a5.35,5.35,0,0,0,.59,3.42c1.39,2.08,2.82,4.94,4.82,5.55,1.74.54,4.78-1.07,6.38-2.63,2.52-2.45,4.32-5.65,6.9-8.31-1.15,8.54-2.49,17-8.25,23.85-2.22,2.63-5.51,4-9.17,2.41-2-.85-3.12-.66-3.76,1.78-4.44,16.89-8.86,33.76-9.62,51.36-.88,20.08,13,31.87,32.5,27.43,13.47-3.06,25.55-9.47,37.48-16.13a5,5,0,0,0,2-3.44,214.59,214.59,0,0,1,13.33-56.39c.45-1.2-.19-2.91-.58-4.32-.62-2.23-2-4.38-2.11-6.6-.53-12.56,4.45-23.62,10.39-34.39-1.11,3.83-2.5,7.61-3.27,11.51a118.3,118.3,0,0,0-2.33,16.44c-.1,1.88,2,3.88,3,5.82,2-1.2,4.08-2.31,6-3.66.76-.54,1.13-1.62,2.2-2.22-.88,5.55-1.19,11.26-6.34,15.14-1.08.81-2.36,2-2.61,3.17q-5,23.86-9.68,47.81c-.26,1.36.23,2.86.37,4.29,1.46-.5,3.11-.72,4.36-1.55q40-26.46,79.94-53.08a51.9,51.9,0,0,0,6.73-5.65c4.31-4.12,4.82-7.69.3-11.65a107.72,107.72,0,0,0-18.77-13.61c-14.91-8.18-30.37-15.37-45.39-23.37a149,149,0,0,1-48.15-41.12,44,44,0,0,0-9.66-8.81c-3.36-2.35-5.06-5.16-5.11-9.11-.08-6.6-.2-13.2-.15-19.79,0-5.39,1.48-6.35,6.44-4,9.57,4.45,19.08,9,28.56,13.71A109.5,109.5,0,0,1,99.32,243c1.22.8,1.67,2.79,2.47,4.23-1.48.82-2.92,2.22-4.45,2.35-4.07.33-8.17.11-12.88,1,2.16,2,4.27,4,6.5,5.9,14.45,12.28,31.1,20.9,48.11,29,9.27,4.39,18.27,9.39,27.56,13.75,16,7.53,22.88,20.66,23.81,37.65.63,11.44-.61,22.78-4.93,33.28A39.42,39.42,0,0,1,174.2,385.4C158.39,398,142,409.92,125.61,421.78c-8.9,6.44-18.19,12.36-27.48,18.25-3,1.87-2.45,3.22-.68,5.45,8.38,10.5,19.64,14.86,32.64,15.82,17.79,1.32,33.85-4.25,49.28-12.26C211.31,432.47,238.52,410,262.14,383c4.75-5.42,8.43-11.26,6-19.16-.88-2.86-1.57-3.89-5-3.28a110.78,110.78,0,0,1-41.15.14c-14.7-2.85-21.86-12.45-20.93-27.35.89-14.25,6.16-26.67,16.56-36.37,14.65-13.67,26.22-12.88,39.69-.26,7.7,7.22,13.29,16,18.19,25.25,3.76,7.11,3.75,7.13,11.24,3.69,16.71-7.66,30.35-19,40.26-34.48,2-3.08,3.86-6.26,6.12-9.13,1.36-1.72,3.37-2.93,5.08-4.37a61.53,61.53,0,0,1,3.38,5.39c2.26,4.59,3.92,9.52,6.6,13.84,5.73,9.25,14.36,15.51,23.88,20.29,8.23,4.15,16.93,7.38,25.39,11.09,2.24,1,3.68.68,5.14-1.48,20.21-30.07,47.22-52.34,79.21-68.89,1.14-.59,2.23-1.3,3.35-2C485.09,255.38,485,254.81,485,254.24Zm-6.62,246.3c4.48-.55,13-1.12,21.33-2.73,18.67-3.62,35.69-11.61,51.7-21.59,17.87-11.13,33.36-24.94,44.48-43.1,4.36-7.14,7.13-14.79,5.88-23.41C599,391,583.19,374,562.88,370.88c-17.92-2.74-36.16-3.89-54.3-4.53-34.59-1.21-69.31.35-103.56-6.42a4.71,4.71,0,0,0-4,2c-11.37,27.41-16.79,55.65-10.06,85.13,4.5,19.69,15.69,34.46,34.13,43.41C440.65,498.06,457.34,499.87,478.33,500.54ZM496.27,122.1c-6.07-.17-7,1.12-5.1,5.44q3.88,8.61,8.27,17c.49.93,2.42,2,3.25,1.73q11.25-3.71,22.3-8c2.81-1.08,3.15-2.84.36-4.67A77.55,77.55,0,0,0,496.27,122.1Zm-261.59,211c4.69-.52,8.62-.84,12.5-1.51.66-.11,1.76-2.09,1.49-2.59-4.53-8.52-15.51-13.53-24.92-11.48-3.27.71-6.43,1.94-6.81,5.8s2.1,6.49,5.55,7.47q6,1.44,12.19,2.28Z"/><path class="cls-1" d="M598.09,12.86c-2,6.8-4,11.48-11,14.12Q513.85,55.23,441,84.43c-30.65,12.21-61.12,24.86-91.6,37.48a84.11,84.11,0,0,0-11.87,6.64c-2.9,1.81-2.56,3.66.58,4.94s6.51,2.61,9.77,3.92,5.63,9.85,3.39,12.38a2.66,2.66,0,0,1-2.35.65c-5.19-1.85-10.58-3.39-15.39-6-3.79-2-4.72-6-3.35-10.39,3.88-12.39,10.76-21.46,23.57-26.43C403.87,88.17,453.72,68,503.85,48.4,533.09,37,562.48,26.11,591.81,15,593.66,14.3,595.56,13.72,598.09,12.86Z"/><path class="cls-1" d="M225.38,165c1.71-7.32,3.34-14.66,5.17-21.94,2-7.95,3.7-16,8.68-22.86,4.75-6.55,9.9-8.15,14.71-4.32,6.69,5.32,8.53,15.62,3.5,20.61-.61.62-2.75.57-3.52,0-1.7-1.31-2.93-3.22-4.44-4.79-3.27-3.39-5.69-3.43-8.06.64a44.32,44.32,0,0,0-4.51,11.35c-3.17,12.65-5.9,25.4-9,38.06a19.7,19.7,0,0,1-3.19,6.15c-.53.79-1.88,1-2.87,1.52a10.31,10.31,0,0,1-1.21-2.71c-1.43-12.32-6.78-23.28-11.85-34.32-1.64-3.56-3.35-6.46-8.62-3.89-3.87,1.89-7.62-1.32-10.39-4.15-2.6-2.64-3.82-2.55-5.5.87-10.87,22-30.2,34.79-51.1,45.21-12.39,6.18-25.8,10.32-38.76,15.34a16.44,16.44,0,0,1-2.7.49c0-2.92,2.36-2.56,1.92-7.39,1.79-.86,14.21-3.92,18.12-6.43,16.27-7.61,31.31-14.41,51.48-31.5,11.32-8.8,19.78-18.09,26.45-30.36,5.08-9.34,10.92-9.94,18.5-2.09,7.91,8.18,12.08,18.23,14.59,29.12.57,2.49,1.11,5,1.66,7.47Z"/><path class="cls-1" d="M197.45,249.13c7.85-4.74,16-9.06,23.49-14.28,21.65-15.08,43.15-30.39,62.15-48.87.21-.21.44-.39.63-.62L290.8,177c-2.56-2.17-5.08-4.38-7.69-6.48-5.17-4.15-6.39-8.11-4.34-14.35a32.69,32.69,0,0,1,11.19-16c4.31-3.35,8.79-2.49,11.36,2.35,3.8,7.18,3.62,14.84,1.22,22.24-1.16,3.57-.32,5.35,2.35,7.3,4,3,5.68,7,4.42,12-1.12,4.39-3,4.86-6.09,1.68-7.51-7.65-7.44-7.6-14,1-21.18,27.41-48.3,46.71-80.66,58.8-3.64,1.37-7.32,2.66-11,4ZM299,159.62c-1.64-2.6-3-6-5.56-8.24-1.11-1-4.67.16-6.71,1.16-2.65,1.3-3,3.43-.19,5.37,2.4,1.67,4.69,3.51,7.12,5.15a22.22,22.22,0,0,0,3.39,1.58C297.54,163.34,298.09,162,299,159.62Z"/><path class="cls-1" d="M661.82,190.48q-24.2,76.88-24.2,98,0,32.18,15.94,32.18,12,0,25.63-28.48h1.14l2,2.56q-11.1,60.09-32.46,60.09H645q-15.66,0-21.93-20.51A111.67,111.67,0,0,1,622,320.61v-16.8q0-49.55,37.31-113.33Zm302.69,127q.57,53-18.79,77.46-33.32,42.13-93.12,79.16Q788,514,744.09,514q-45.55,0-71.75-36.16-22.79-31.89-22.78-77.17,0-43.84,14.8-76.88,6.55-14.24,10.82-14.24c1.52,0,2.28,1.43,2.28,4.27q0,5.42-3.42,13.39-11.38,27.33-11.39,63.21,0,27.92,17.37,50.69,25.07,33.29,77.19,33.28,27,0,86-33.88,63.21-36.17,104.21-80c.57-.57.86-2.28.86-5.12q0-19.65-16.23-114.76-8.84-52.11-17.66-103.93-3.71-25.34-9.68-77.45-.86-3.7-7.69-17.66-4-7.4,6.55-39.57c.38-1.33,1-2,2-2q3.42,0,8,12Q944,69.47,944,82c0,1.52-.56,2.28-1.7,2.28-.76,0-2-.57-3.7-1.71q-4.27-5.13-13.39-16,0,5.42,18.23,107.92,18.79,105.71,21.07,143Z"/><path class="cls-1" d="M1090.89,321.4c1.92,3.64,2.08,3.92,5.81,1.87,12-6.61,24-13.45,36-20.21,1.26-.71,2.44-1.56,3.73-2.22,2.88-1.47,4.62-.51,4.68,2.75a23.22,23.22,0,0,1-.59,6.16c-3.42,13.69,6.42,24.94,19.75,27.69,7,1.45,14,1.37,20.7-1.6a15.32,15.32,0,0,0,1.93-1c6.25-3.74,7-5.76,4-12.34-1.38-3.11-3.14-6-4.82-9-2.19-3.85-3.1-7.82-1.77-12.2,1.86-6.14,3.52-12.33,5.46-18.44.43-1.34,1.67-2.42,2.53-3.61,1,1.05,2.43,1.93,3.1,3.19,5.32,10,8.6,20.66,8.61,32.05s-1.44,22.27-6,32.74c-8.39,19.37-29.68,28.27-48,19.83-11.83-5.44-17.54-14.94-17.8-27.85v-6.27c-5,3.41-9.38,6.69-14,9.47-5.86,3.47-11.9,6.67-18,9.69C1094,353.14,1085.09,310.42,1090.89,321.4Z"/><path class="cls-1" d="M1116.45,213.33l29,17.18-17.66,27.11L1099.4,240.1,1083.83,265l-29.58-18.68,17.41-26.82,28.77,18.93Z"/><path class="cls-1" d="M1094.89,181.29,1083.76,171c-24.35,35.3-57.3,58.25-97.65,70.94,17.59-9.32,33.64-20.94,49.31-33.11s32.07-23.72,44.73-40c-2.54-1.66-4.79-3.07-7-4.56-7.31-5-8.63-9.4-5.32-17.67a35.24,35.24,0,0,1,9.51-13.25c5.15-4.59,11.15-3.17,13.44,3.36a30.88,30.88,0,0,1-.44,22.5c-.7,1.72-.54,2.67.93,3.72a29.55,29.55,0,0,1,4.07,3.51C1100,171.27,1099.88,176.33,1094.89,181.29Zm-9.09-22.93a12.48,12.48,0,0,0-1.41-12.63c-1-1.43-3.55-2.83-5.11-2.57-2.21.36-4.24,2.18-6.12,3.66-.31.25.19,2.38.88,2.93,3.74,2.93,7.65,5.64,11.76,8.61Z"/><path class="cls-1" d="M1180,423.3c-4.35-2.82-8.42-5.43-12.46-8.08s-8-5.19-11.84-7.94a2.89,2.89,0,0,1-.91-2.6c4.37-7.7,8.9-15.32,13.63-23.35l26.17,17.95Z"/><path class="cls-1" d="M1293.86,116.26c-1.23,4.16-2.53,7-6.83,8.66q-45.42,17.25-90.62,35.11c-19,7.47-37.9,15.21-56.8,22.92a52.74,52.74,0,0,0-7.36,4.07c-1.8,1.1-1.59,2.23.35,3l6.07,2.4c2.07.81,3.49,6,2.1,7.57a1.73,1.73,0,0,1-1.46.4,71.06,71.06,0,0,1-9.54-3.66c-2.35-1.26-2.93-3.67-2.08-6.36,2.4-7.58,6.67-13.12,14.61-16.16,31.11-11.9,62-24.23,93.11-36.22,18.11-7,36.35-13.64,54.54-20.44C1291.09,117.14,1292.28,116.79,1293.86,116.26Z"/><path class="cls-1" d="M1097.64,350q1.08,24.58-8.92,44.16-14.81,21.54-52.65,50-50,38.07-87.68,37.86-27.84-.22-41.77-25.67-10.87-20.24-10.88-49.83c0-2.6.07-5.22.22-7.83q1.31-22,12.18-50.25,5.45-14.15,8.71-14.15,1.08,0,1.08,2.4,0,4.35-3.48,13.71-3.91,10.44-5.65,17a115.12,115.12,0,0,0-3.48,23.71q-2,60,52.21,60.05,32.41,0,83.54-37.64,42.42-31.11,48.74-43.73-1.32-5-10.66-9.79a48.12,48.12,0,0,0-24.59-5q-10.66.43-13.27.43-24.79,0-25.24-23.71-.43-20,11.32-34.59,10.88-13.5,23.28-13.49,11.52,0,26.32,15.44Q1096.34,319.09,1097.64,350Zm-29.81-23.06q-13.49-15-22.62-15-11.1,0-11.53,9.79,2.38,3.92,11.31,4.35,6.73-.21,13.27-.22a71.48,71.48,0,0,1,9.57,1.07Z"/><path class="cls-1" d="M796,252.31c11.32-5.59,21.2-10.36,31-15.34a167,167,0,0,0,16.46-9.25c2.14-1.42,3.28-4.35,4.87-6.6-2.59-1.51-5.2-4.34-7.76-4.3-10.77.14-21.54,1.1-32.29,1.86-2,.14-4,.81-6,1-2.35.27-4.73.32-7.11.46.54-2.77.43-5.88,1.71-8.25,5.47-10.14,15.28-14.37,25.8-14.93a188.23,188.23,0,0,1,37.58,1.72c10.24,1.54,12.25,6.83,6.72,15.43-15.08,23.4-37.38,35.65-64.48,39.86a8.11,8.11,0,0,1-2.69-.17A31,31,0,0,1,796,252.31Z"/></g></g></g></svg>